<svg width="1016" height="1222" viewBox="0 0 1016 1222" fill="none" xmlns="http://www.w3.org/2000/svg">
<g clip-path="url(#clip0_53_2124)">
<path d="M409.528 12.8579C408.943 12.9499 407.997 12.3579 407.618 11.9709L410.321 9.66089L411.404 11.1329C411.249 11.7799 410.068 12.6009 409.528 12.8579Z" fill="#F5F5F5" stroke="white" stroke-width="1.4173" stroke-miterlimit="3.8637" stroke-linejoin="round"/>
<path d="M469.023 35.2489L468.26 35.1329L467.559 34.1519L468.438 33.5599L468.281 32.3689L469.77 31.2429L470.419 32.4909L469.739 34.6569L469.023 35.2489Z" stroke="white" stroke-width="1.4173" stroke-miterlimit="3.8637" stroke-linejoin="round"/>
<path d="M455.525 69.382C454.963 68.769 453.117 68.533 452.364 68.537L451.885 67.555C452.873 65.889 452.826 65.411 452.739 63.708L453.349 62.625L453.257 60.46L454.957 60.474L455.114 60.741L454.446 62.04L454.662 62.748L456.349 63.145L457.161 64.343L459.464 63.557L460.736 62.048L461.61 62.214L462.599 61.68L464.07 61.969L464.339 62.352C463.908 63.086 463.039 65.02 463.218 65.925L461.406 66.019L459.483 67.629L457.456 67.773L456.188 69.173L455.525 69.382Z" stroke="white" stroke-width="1.4173" stroke-miterlimit="3.8637" stroke-linejoin="round"/>
<path d="M387.572 70.19L386.32 69.042L384.679 69.251L383.7 68.428L381.844 68.255C381.02 66.669 380.113 65.73 378.859 64.379C378.528 63.476 378.563 62.147 378.766 61.225L379.155 60.741L381.341 60.972L382.718 60.113L384.517 60.994L384.996 62.3L385.928 62.69L386.353 63.831L386.957 64.213C388.415 63.815 390.868 63.866 392.259 64.523L391.976 65.223L390.993 65.548L390.876 67.121L389.229 67.381C389.635 67.826 390.067 68.889 389.874 69.503L387.572 70.19Z" fill="#F5F5F5" stroke="white" stroke-width="1.4173" stroke-miterlimit="3.8637" stroke-linejoin="round"/>
<path d="M384.212 73.208L382.854 72.551L382.748 72.06L383.294 71.627L384.115 72.125L385.538 72.024L385.86 72.623L385.307 73.106L384.212 73.208Z" fill="#F5F5F5" stroke="white" stroke-width="1.4173" stroke-miterlimit="3.8637" stroke-linejoin="round"/>
<path d="M395.301 74.1031C394.617 72.9291 393.02 71.0471 391.718 70.4941L392.218 69.7361C393.261 69.5731 394.622 68.3931 395.08 67.4771L397.369 68.6321L397.692 69.2891L397.303 69.9391L396.044 70.5811C395.514 71.2721 395.321 73.2851 395.301 74.1031Z" fill="#F5F5F5" stroke="white" stroke-width="1.4173" stroke-miterlimit="3.8637" stroke-linejoin="round"/>
<path d="M457.086 114.616L456.554 113.418L455.577 112.812L455.098 111.506L455.267 110.64C455.579 110.139 459.538 110.452 460.237 110.466L460.775 111.289C459.511 111.879 457.948 113.575 457.086 114.616Z" stroke="white" stroke-width="1.4173" stroke-miterlimit="3.8637" stroke-linejoin="round"/>
<path d="M463.929 118.377L463.66 117.937C463.766 117.172 465.8 114.739 466.318 114.053L467.026 113.894L468.114 114.508L469.268 113.483L470.194 113.497C469.106 116.208 466.707 117.75 463.929 118.377Z" stroke="white" stroke-width="1.4173" stroke-miterlimit="3.8637" stroke-linejoin="round"/>
<path d="M395.544 166.874L393.924 164.961L393.877 163.929L396.594 164.658L396.811 165.2L396.365 166.391L395.544 166.874Z" fill="#F5F5F5" stroke="white" stroke-width="1.4173" stroke-miterlimit="3.8637" stroke-linejoin="round"/>
<path d="M387.551 189.617L387.231 188.91C387.567 187.144 390.576 185.966 391.981 186.716L390.334 188.332L388.977 188.375L387.551 189.617Z" fill="#F5F5F5" stroke="white" stroke-width="1.4173" stroke-miterlimit="3.8637" stroke-linejoin="round"/>
<path d="M372.138 190.982L371.982 190.108C372.425 189.521 374.006 187.637 374.769 187.466L375.203 188.066L373.446 190.823L372.138 190.982Z" fill="#F5F5F5" stroke="white" stroke-width="1.4173" stroke-miterlimit="3.8637" stroke-linejoin="round"/>
<path d="M389.981 193.104L389.546 192.779L390.38 190.18C390.797 189.695 391.821 189.01 392.505 189.054L393.745 191.501L393.471 192.367L389.981 193.104Z" fill="#F5F5F5" stroke="white" stroke-width="1.4173" stroke-miterlimit="3.8637" stroke-linejoin="round"/>
<path d="M394.783 198.568C394.528 197.923 393.709 196.404 393.004 196.114L393.123 195.139C393.79 194.564 395.179 193.107 396.016 193.147L396.175 194.504L397.472 195.168C398.776 194.033 401.468 193.046 403.209 193.204L404.633 191.855L405.177 191.804L406.042 192.461L405.433 193.818L406.286 196.207L406.062 197.073C405.678 197.478 404.4 198.559 403.766 198.473L402.363 197.21L401.438 197.094C400.001 198.271 397.424 198.709 395.665 198.141L394.783 198.568Z" fill="#F5F5F5" stroke="white" stroke-width="1.4173" stroke-miterlimit="3.8637" stroke-linejoin="round"/>
<path d="M372.466 199.615L371.383 198.41L369.75 198.728L369.152 198.453L368.456 197.147L368.62 196.657L370.083 195.689L370.95 197.869C371.54 197.732 372.297 197.095 372.649 196.628L373.206 194.513L374.46 193.871L374.795 192.897L376.428 192.204L377.307 190.522L378.615 190.536L379.604 189.128L380.531 188.97L381.239 189.468C380.677 189.759 379.825 193.993 378.857 195.422L378.095 195.523L376.948 197.039L375.418 197.082L374.762 197.508L374.704 198.923L372.466 199.615Z" fill="#F5F5F5" stroke="white" stroke-width="1.4173" stroke-miterlimit="3.8637" stroke-linejoin="round"/>
<path d="M361.586 208.767L360.93 208.493C360.917 208.405 360.819 207.901 360.833 207.843C360.896 207.586 361.731 204.323 361.718 204.263C361.492 203.239 361.027 201.951 361.359 200.899L363.05 199.983C363.432 200.756 362.785 202.851 362.487 203.563L363.354 204.328L363.774 206.617C363.651 207.439 362.254 208.45 361.586 208.767Z" fill="#F5F5F5" stroke="white" stroke-width="1.4173" stroke-miterlimit="3.8637" stroke-linejoin="round"/>
<path d="M446.694 206.204L448.15 207.951L447.921 209.308L448.616 210.73L447.408 212.073L446.534 212.008C446.238 211.612 445.442 211.029 444.907 211.077L443.707 211.604L443.118 210.73L441.436 209.958L441.686 206.162L442.448 206.545L442.711 207.635L443.248 208.125L444.999 207.274L445.525 208.912L446.286 209.136L446.785 208.212L446.694 206.204Z" fill="#F5F5F5" stroke="white" stroke-width="1.4173" stroke-miterlimit="3.8637" stroke-linejoin="round"/>
<path d="M320.362 218.431L320.09 217.616L320.478 216.1L321.79 215.234L322.388 216.049L321.128 218.215L320.362 218.431Z" fill="#F5F5F5" stroke="white" stroke-width="1.4173" stroke-miterlimit="3.8637" stroke-linejoin="round"/>
<path d="M380.479 223.542C379.7 222.711 378.014 221.809 376.85 221.781C375.991 221.049 373.759 219.206 374.266 217.804L374.758 217.371L376.333 217.277C376.405 216.538 377.284 215.582 377.921 215.278L379.114 215.285L379.658 215.776L380.296 217.898L379.633 219.471L380.866 222.351L380.479 223.542Z" fill="#F5F5F5" stroke="white" stroke-width="1.4173" stroke-miterlimit="3.8637" stroke-linejoin="round"/>
<path d="M297.999 239.125L297.728 238.526C297.912 237.531 298.076 236.529 298.281 235.538L299.371 235.379C299.763 235.77 300.289 236.126 300.723 236.476L298.917 238.959L297.999 239.125Z" fill="#F5F5F5" stroke="white" stroke-width="1.4173" stroke-miterlimit="3.8637" stroke-linejoin="round"/>
<path d="M399.008 249.346L398.411 248.963L398.044 246.733L397.184 245.802L398.058 245.318L398.719 243.694L400.236 244.033L400.451 244.524L399.514 246.581L400.157 248.212L399.711 249.187L399.008 249.346Z" fill="#F5F5F5" stroke="white" stroke-width="1.4173" stroke-miterlimit="3.8637" stroke-linejoin="round"/>
<path d="M425.643 246.942L427.147 249.62L426.81 250.32L426.109 250.421L425.032 248.299L425.643 246.942Z" fill="#F5F5F5" stroke="white" stroke-width="1.4173" stroke-miterlimit="3.8637" stroke-linejoin="round"/>
<path d="M389.546 250.63L389.002 250.464L388.359 249.541L388.306 248.725L388.746 248.242L389.724 248.573L390.748 249.88L389.546 250.63Z" fill="#F5F5F5" stroke="white" stroke-width="1.4173" stroke-miterlimit="3.8637" stroke-linejoin="round"/>
<path d="M307.172 256.687C305.798 254.717 306.213 250.947 304.153 249.786L304.972 248.704C304.378 245.398 302.521 246.117 301.783 243.803L301.842 242.429C302.06 237.397 302.984 239.254 304.473 235.509C304.582 235.234 304.487 233.467 304.592 233.07C304.949 231.725 306.259 230.635 305.641 229.057L307.493 227.331C307.522 226.406 308.057 224.932 308.76 224.292L308.11 222.502C309.82 221.418 311.547 219.357 312.48 217.58L313.352 217.37C314.932 216.238 315.062 213.16 317.612 213.371L318.531 214.461C318.843 215.36 318.001 217.444 317.592 218.2L317.967 219.398L320.087 220.271L320.244 221.036L317.344 226.016L317.614 226.615L318.54 226.998C318.508 229.819 317.166 229.93 316.565 231.379C315.674 233.524 314.392 237.035 313.972 239.297C313.954 239.393 314.455 242.218 314.502 242.502L313.958 243.909C314.573 246.341 315.949 248.881 317.187 251.033L316.748 251.899C313.324 250.591 311.849 249.84 309.393 253.437L307.172 256.687Z" fill="#F5F5F5" stroke="white" stroke-width="1.4173" stroke-miterlimit="3.8637" stroke-linejoin="round"/>
<path d="M367.847 254.463L368.68 255.301V256.131C367.287 256.457 364.496 257.23 363.326 258.13L362.665 257.293V256.29L365.84 255.965L367.847 254.463Z" fill="#F5F5F5" stroke="white" stroke-width="1.4173" stroke-miterlimit="3.8637" stroke-linejoin="round"/>
<path d="M420.486 190.094L421.352 191.011L422.106 191.126L422.481 192.101L420.938 194.7C420.326 194.929 418.679 195.83 418.531 196.577C418.048 199.511 420.282 202.845 422.219 204.856C423.615 204.715 424.388 202.968 425.778 203.153C426.954 203.83 432.395 207.399 433.528 207.015C433.739 207.953 433.985 208.787 433.501 209.728L432.142 209.988C431.247 211.579 429.561 212.434 428.462 214.355L428.619 215.221L429.046 215.662L430.298 215.835L431.61 214.593C434.194 214.098 437.407 219.719 443.506 216.925L442.11 220.931C440.777 221.928 439.639 222.543 438.875 224.099L437.621 224.251L437.142 223.436L437.371 221.704C436.889 221.266 435.102 220.462 434.444 220.751L428.007 223.573L425.521 228.871C426.732 230.92 426.559 232.631 425.684 234.79L425.901 235.281L427.745 235.57L429.201 237.049L430.619 236.407L431.039 238.205L432.174 239.136L435.007 237.859L435.482 240.523L437.015 238.848L438.262 238.538L438.533 239.57L439.234 240.068C438.332 240.586 437.609 242.276 437.522 243.251L436.814 243.734L437.015 244.932L435 245.506L434.697 242.843L434.317 242.46L429.973 242.366L429.514 242.676C428.694 243.231 427.683 244.092 426.804 244.509C426.571 244.62 425.579 244.551 425.335 244.661C423.745 245.379 421.939 246.988 420.472 247.989L419.173 247.758L417.586 249.375L415.847 249.693C413.91 250.729 414.995 255.522 415.736 256.904L417.809 256.11C418.63 256.104 419.927 256.989 420.46 257.539L419.37 257.857L418.601 258.723L418.813 259.214L418.05 259.799L417.769 260.997C413.453 259.654 409.773 254.55 405.597 254.552L403.774 251.607L401.824 250.611C401.951 249.667 403.353 248.483 404.122 248.085L404.016 247.645L402.882 247.204L402.284 246.28L401.471 246.432L401.26 245.241L401.984 243.833L401.88 243.068L402.26 242.425C403.448 243.105 404.611 244.081 406.059 243.862L406.668 241.372L407.383 240.671L406.846 239.747L408.696 239.321L409.135 238.838L408.387 236.391L407.47 235.735L403.822 237.388L402.523 236.132C401.516 236.495 399.869 236.875 398.98 237.409C398.166 237.899 397.181 239.847 396.086 239.769L395.488 239.278L396.597 236.68L395.626 235.265C396.891 234.143 398.257 233.473 400.041 233.67L400.71 230.956C401.217 230.558 402.784 230.815 403.323 230.978L403.912 231.909L404.943 231.967L405.822 230.783L407.619 230.689L409.129 231.894L409.109 234.442C409.919 234.645 413.143 235.693 413.833 235.236C414.805 233.909 417.264 232.605 418.912 232.565C419.847 231.991 420.516 227.821 419.931 226.87L419.385 226.921L418.946 227.845L417.753 227.722C417.126 227.345 415.901 226.271 415.758 225.485C415.298 225.327 414.768 225.085 414.295 224.987L411.107 229.953L410.017 230.105C409.229 229.841 408.242 228.991 407.799 228.301C407.007 225.967 410.122 222.22 408.468 218.426L410.444 216.434L411.506 211.988C410.767 211.383 410.11 210.004 409.9 209.101L409.408 208.776C408.693 209.371 406.849 210.284 405.865 209.938L403.456 212.421L403.555 213.778L399.54 211.959L400.156 210.061C399.7 209.781 398.364 208.727 398.372 208.098L398.812 207.124L400.452 206.157L401.009 204.584L403.031 203.682L402.381 202.318C402.839 201.907 403.867 201.699 404.455 201.841L405.044 202.989C406.3 202.178 408.698 199.048 408.679 197.532C409.169 196.921 410.188 196.099 410.978 195.922C411.377 196.063 411.793 196.679 411.889 197.07L411.778 198.103L412.317 198.377L412.795 199.849C414.218 197.703 413.485 195.961 414.193 194.861C415.497 193.567 418.33 192.274 419.987 191.599L420.486 190.094Z" fill="#F5F5F5" stroke="white" stroke-width="1.4173" stroke-miterlimit="3.8637" stroke-linejoin="round"/>
<path d="M375.636 268.61L374.823 268.444L374.232 267.029L372.992 266.257L374.135 265.507L373.821 264.366L374.418 264.258L376.256 265.413C375.702 265.941 375.608 267.926 375.636 268.61Z" fill="#F5F5F5" stroke="white" stroke-width="1.4173" stroke-miterlimit="3.8637" stroke-linejoin="round"/>
<path d="M362.114 270.046L361.95 269.389C362.155 268.613 363.486 267.393 364.299 267.346L365.27 268.379L365 268.653L363.91 268.48L362.114 270.046Z" fill="#F5F5F5" stroke="white" stroke-width="1.4173" stroke-miterlimit="3.8637" stroke-linejoin="round"/>
<path d="M401.837 271.454L399.795 268.776L400.505 268.076L402.998 268.473L402.31 266.459L404.692 266.914L405.841 265.781L406.929 265.679L406.969 267.743L408.315 268.948C407.202 270.12 403.516 272.224 401.837 271.454Z" fill="#F5F5F5" stroke="white" stroke-width="1.4173" stroke-miterlimit="3.8637" stroke-linejoin="round"/>
<path d="M349.744 278.167L345.794 276.63C346.435 276.285 347.106 274.937 347.322 274.298L350.15 273.555L350.42 274.103L349.744 278.167Z" fill="#F5F5F5" stroke="white" stroke-width="1.4173" stroke-miterlimit="3.8637" stroke-linejoin="round"/>
<path d="M323.417 279.228L321.581 278.023L321.529 277.373L322.073 277.214C322.448 277.741 323.416 278.305 324.075 278.304L324.559 279.011L323.417 279.228Z" fill="#F5F5F5" stroke="white" stroke-width="1.4173" stroke-miterlimit="3.8637" stroke-linejoin="round"/>
<path d="M398.878 283.479C399.537 282.059 397.498 279.856 398.155 278.044C398.839 277.898 399.585 276.749 399.795 276.16L400.505 276.327L401.154 275.901L401.698 276.225L400.437 277.301L400.049 278.6L400.797 279.964L401.671 280.13L402.432 279.762L403.08 279.978L403.507 280.801L403.284 281.393L402.142 281.545L401.38 282.519L398.878 283.479Z" fill="#F5F5F5" stroke="white" stroke-width="1.4173" stroke-miterlimit="3.8637" stroke-linejoin="round"/>
<path d="M317.218 283.645L316.292 283.205C316.012 282.497 316.048 281.925 316.09 281.199L317.126 279.792L318.15 281.206L317.114 282.289L317.434 282.997L317.218 283.645Z" fill="#F5F5F5" stroke="white" stroke-width="1.4173" stroke-miterlimit="3.8637" stroke-linejoin="round"/>
<path d="M415.885 288.055L415.453 287.889L414.546 285.551L414.718 284.735L415.471 284.634L416.818 286.38L416.587 287.846L415.885 288.055Z" fill="#F5F5F5" stroke="white" stroke-width="1.4173" stroke-miterlimit="3.8637" stroke-linejoin="round"/>
<path d="M407.238 290.971L407.067 291.679L405.977 292.104L406.207 291.022L406.797 290.971L407.296 290.213L408.161 290.054L408.215 290.87L407.238 290.971Z" fill="#F5F5F5" stroke="white" stroke-width="1.4173" stroke-miterlimit="3.8637" stroke-linejoin="round"/>
<path d="M359.119 291.029L359.986 291.303C360.461 291.827 361.802 293.663 361.592 294.457L360.884 294.724L360.017 294.341L358.443 294.55C358.162 294.428 357.913 293.899 357.853 293.626L359.119 291.029Z" fill="#F5F5F5" stroke="white" stroke-width="1.4173" stroke-miterlimit="3.8637" stroke-linejoin="round"/>
<path d="M234.645 318.233L234.101 317.901V317.309L235.838 314.92L236.489 314.978L234.645 318.233Z" fill="#F5F5F5" stroke="white" stroke-width="1.4173" stroke-miterlimit="3.8637" stroke-linejoin="round"/>
<path d="M241.088 319.215L240.663 318.298L240.827 317.05L242.125 316.183L243.312 317.432L242.395 318.84L241.088 319.215Z" fill="#F5F5F5" stroke="white" stroke-width="1.4173" stroke-miterlimit="3.8637" stroke-linejoin="round"/>
<path d="M370.727 309.059L371.541 309.175L372.019 309.933L370.931 311.174L371.634 311.997L370.871 312.64C370.097 312.902 368.179 312.188 367.512 311.86C366.487 312.145 364.936 314.703 364.783 315.75L366.554 318.205L366.376 320.753C364.768 320.174 361.927 320.691 360.517 321.583L359.986 320.5C359.273 320.152 356.93 318.798 356.744 317.931L357.243 315.599L359.743 314.798C358.171 311.838 356.028 309.614 352.558 310.901L351.573 311.825L352.164 312.965L352 313.556L351.456 313.722C349.216 312.024 344.801 310.697 341.987 311.059L341.174 310.193L341.179 309.319C341.594 308.782 342.8 306.976 342.656 306.237C341.882 305.668 340.898 304.334 340.775 303.349L341.543 302.808L343.215 303.414L345.067 302.397L345.511 300.499L347.028 300.398L347.683 299.59L348.079 296.551L348.675 296.826C349.361 297.721 350.062 299.482 349.955 300.637L350.986 301.345L351.963 300.594L352.614 300.543L353.315 301.251L353.617 306.08L355.828 308.051C357.153 307.713 361.319 312.004 364.109 310.808L365.144 309.025L365.742 309.033L366.169 310.224L366.976 310.723C368.334 310.985 369.641 309.72 370.727 309.059Z" fill="#F5F5F5" stroke="white" stroke-width="1.4173" stroke-miterlimit="3.8637" stroke-linejoin="round"/>
<path d="M323.136 333.319L322.54 332.453L322.709 331.745L323.142 331.528L323.786 332.185L325.197 332.408L325.517 332.949L325.026 333.657C324.572 333.899 323.531 333.537 323.136 333.319Z" fill="#F5F5F5" stroke="white" stroke-width="1.4173" stroke-miterlimit="3.8637" stroke-linejoin="round"/>
<path d="M243.792 355.001L242.5 355.413L241.423 352.915L241.64 352.475L242.4 352.374L243.156 353.622L243.148 354.489L243.792 355.001Z" fill="#F5F5F5" stroke="white" stroke-width="1.4173" stroke-miterlimit="3.8637" stroke-linejoin="round"/>
<path d="M265.125 357.145L264.094 356.979L263.557 354.481L262.698 353.99L262.534 353.124L259.503 351.918L260.323 351.11L263.726 351.608L264.705 350.85C265.072 350.02 265.34 348.545 265.092 347.645L264.441 346.83L262.494 346.39L263.142 345.04L262.663 343.359L264.068 343.525C264.772 342.569 266.047 341.157 267.165 340.652L269.056 340.825C269.329 340.315 270.676 339.999 271.175 339.959L272.691 338.01L273.617 337.909L273.556 339.425C272.804 339.561 271.953 340.913 271.712 341.54L269.436 342.017C268.564 342.659 268.204 345.598 268.609 346.572L269.692 346.629L269.804 347.062L268.766 349.343L269.849 349.618L270.172 350.051L269.954 350.759C267.701 352.126 265.708 354.088 265.663 356.873L265.125 357.145Z" fill="#F5F5F5" stroke="white" stroke-width="1.4173" stroke-miterlimit="3.8637" stroke-linejoin="round"/>
<path d="M343.923 368.693C343.125 368.581 341.794 366.429 342.04 365.647L343.228 365.979L343.984 367.062L343.923 368.693Z" stroke="white" stroke-width="1.4173" stroke-miterlimit="3.8637" stroke-linejoin="round"/>
<path d="M196.233 402.12L195.636 401.744L194.553 399.413L194.769 398.323L195.8 397.89L196.069 398.813L196.665 399.355H197.473L198.011 399.954L196.233 402.12Z" fill="#F5F5F5" stroke="white" stroke-width="1.4173" stroke-miterlimit="3.8637" stroke-linejoin="round"/>
<path d="M179.973 410.153L179.757 409.28L180.4 408.63L182.885 408.197L182.722 409.388L179.973 410.153Z" fill="#F5F5F5" stroke="white" stroke-width="1.4173" stroke-miterlimit="3.8637" stroke-linejoin="round"/>
<path d="M584.633 5.86507L584.205 5.10007L583.117 4.70307L583.071 4.05307L583.957 3.41107L584.305 2.06107L585.182 2.01807L585.761 3.70707L585.241 5.54707L584.633 5.86507Z" stroke="white" stroke-width="1.4173" stroke-miterlimit="3.8637" stroke-linejoin="round"/>
<path d="M591.961 6.88906L590.268 6.81006L589.272 7.56106L588.53 9.66806L588.031 9.92906L587.118 8.61506L586.298 8.60006L585.95 5.77806L586.234 5.28706L588.156 4.71706L588.781 3.59106L589.763 3.76406L591.961 6.88906Z" stroke="white" stroke-width="1.4173" stroke-miterlimit="3.8637" stroke-linejoin="round"/>
<path d="M481.365 110.401L479.895 110.221L478.976 109.24L478.877 108.208L479.369 107.508C480.163 107.475 481.82 107.652 482.48 108.186L482.959 109.117L481.365 110.401Z" stroke="white" stroke-width="1.4173" stroke-miterlimit="3.8637" stroke-linejoin="round"/>
<path d="M465.832 54.4921L464.46 54.6431C464.14 54.3321 465.172 49.1221 465.019 47.6421C466.938 47.1061 467.75 46.8861 468.424 46.4531C469.193 45.9591 469.782 45.1891 471.626 43.3621L472.282 43.1531C473.107 43.7521 473.957 44.2901 474.677 45.0231L475.097 46.6041L476.081 46.6691L476.791 47.2171C476.68 48.0011 476.348 49.4381 475.833 50.0831L475.118 50.3001L473.17 47.9971C467.685 49.3101 466.368 48.4211 465.832 54.4921Z" stroke="white" stroke-width="1.4173" stroke-miterlimit="3.8637" stroke-linejoin="round"/>
<path d="M471.587 41.9541L471.318 41.4631L472.151 39.8971L475.549 39.2251L475.82 39.8751C475.523 41.1481 472.871 41.9151 471.587 41.9541Z" stroke="white" stroke-width="1.4173" stroke-miterlimit="3.8637" stroke-linejoin="round"/>
<path d="M533.321 985.622L534.717 985.087C533.947 983.587 533.337 982.827 533.216 981.148C531.748 979.492 530.796 977.714 530.385 975.558C529.619 971.535 530.136 970.492 533.19 967.548L533.254 963.909L533.721 964.45L534.01 966.479L534.713 966.776L535.237 966.003L534.713 965.05L535.421 964.271L535.067 963.5L535.482 962.604C534.925 961.973 533.958 960.354 534.09 959.444L533.623 958.901L533.034 959.493L533.618 961.702L532.908 962.958C531.767 957.144 528.694 952.349 526.516 946.956C524.909 942.972 523.532 938.884 521.93 934.895C521.076 932.764 519.943 930.709 519.135 928.565C518.509 926.899 518.084 925.03 517.574 923.317C517.499 923.065 517.052 922.669 516.99 922.421C515.737 917.4 514.713 912.179 512.396 907.503L512.691 906.132L511.936 904.341C512.919 902.456 511.735 899.655 511.243 897.866C509.685 892.202 508.198 889.21 504.168 884.962C503.172 883.911 501.701 882.636 500.211 882.255L499.456 880.046C499.347 880.161 498.239 880.282 498.052 880.284C495.606 878.684 494.021 876.307 491.793 874.602C491.656 874.498 487.931 872.44 487.698 872.336C486.344 871.734 484.744 872.014 483.663 870.836L485.244 868.693C487.47 867.908 492.698 866.388 493.978 864.591L494.194 864.585C494.902 860.724 493.222 866.081 486.36 866.368L486.603 862.319C486.658 861.413 486.302 860.485 486.373 859.692C486.533 857.852 487.931 855.967 487.607 854.09L488.663 852.957C489.585 852.848 490.505 852.707 491.418 852.545L493.059 853.26L493.177 850.821C492.536 850.544 491.295 849.876 490.894 849.26C490.931 848.455 490.667 846.5 489.903 845.985H489.083C489 844.686 488.432 839.954 488.919 839.069L492.199 838.774L492.731 838.354C492.564 836.907 492.204 834.688 491.039 833.706C492.899 832.339 492.053 828.237 493.218 826.077C493.469 825.577 499.447 824.958 500.311 824.837L498.79 823.761L493.809 824.05L492.813 823.097C492.63 822.603 493.94 819.495 494.171 818.868L494.932 818.686L496.46 817.2L495.759 815.591L496.291 814.095L497.459 813.208L498.108 811.655L499.931 810.53L500.11 809.93L499.347 808.198L499.527 807.368L500.169 806.891C499.455 806.293 498.675 805.012 498.536 804.082L498.949 802.473L500.005 802.004L500.768 800.033L501.299 799.679L502.82 800.394L503.352 800.22L505.695 801.534L506.514 801.475C504.242 800.049 502.811 797.231 500.899 795.266L500.72 794.133C503.309 789.817 503.277 787.031 503.733 782.217L504.324 781.74L504.847 782.217L503.955 788.416L505.957 788.064L506.658 788.718L507.184 788.423C507.047 787.755 507.275 786.663 507.656 786.101L507.545 785.622L508.844 781.688L507.845 778.346L506.5 778.289L505.851 777.746L505.622 776.434L505.976 775.661L505.74 774.587L506.861 772.622L505.745 772.204L504.866 770.653L506.342 767.678C506.763 767.666 507.697 767.436 507.931 767.022L508.574 767.086L509.048 765.715L507.348 764.877L506.994 765.232L505.176 765.412L504.475 764.517C504.996 763.695 504.957 762.021 504.536 761.173L505.657 759.984L506.425 756.648L509.247 756.359L509.601 755.998C507.171 755.658 504.51 752.486 504.911 749.973L510.015 749.205L508.848 748.131L505.797 748.361L505.502 747.531L506.446 745.863L505.33 744.73L505.278 743.597L506.918 743.718L507.509 742.052L506.106 742.406C505.627 741.847 504.49 741.357 503.755 741.388L503.283 740.197C504.585 735.656 502.945 729.789 502.371 725.176L501.486 726.426L501.019 725.893C505.131 717.911 505.378 707.989 512.115 701.539L513.058 701.422C513.52 701.883 513.347 703.369 513.347 703.984L514.758 702.736L515.757 704.345L517.265 704.741L518.479 706.011C518.545 704.941 515.428 701.689 514.707 700.829C514.258 699.177 515.321 697.874 515.599 696.36C515.739 695.606 515.498 694.684 515.599 693.913C515.826 692.192 516.624 687.995 518.263 686.776L518.147 686.061L516.736 686.415L516.269 686.054C517.577 683.447 521.248 677.46 524.052 676.599L523.289 675.943C523.276 675.091 526.856 671.228 527.542 670.414L528.243 670.357C530.534 667.939 532.29 665.593 534.266 662.865L533.917 661.853C534.547 656.947 537.902 657.146 538.819 654.714C539.137 653.868 539.199 652.708 539.593 651.913C540.161 650.77 541.258 649.784 541.837 648.643C542.747 646.852 543.343 644.784 544.153 642.934C544.458 642.237 544.879 641.457 545.473 640.995L546.338 640.323C547.276 638.069 548.13 635.675 549.187 633.479C550.502 630.743 553.51 626.799 553.214 623.569H554.273C554.546 619.653 557.245 618.573 558.577 615.182L559.757 615.037L560.645 612.937C562.217 612.705 564.457 611.063 565.455 609.904L566.576 610.359C567.272 607.834 569.056 604.124 571.13 602.448C571.918 601.811 573.176 601.654 573.834 600.802C573.778 600.097 573.968 598.416 574.622 597.945L574.471 597.397L573.335 597.874C572.923 596.696 574.555 592.269 574.93 591.01L574.458 589.92L577.253 585.728L577.103 585.079C578.689 582.105 584.331 577.309 587.071 574.259L589.171 574.238L591.187 575.891L592.426 575.962C593.022 576.128 593.89 578.367 594.152 578.914L594.801 578.979C593.731 573.843 591.651 572.706 587.005 571.386L586.796 570.737L589.769 565.519C589.876 565.329 590.794 564.805 590.912 564.609C591.766 563.177 592.275 561.451 593.069 559.976C594.049 558.153 594.962 557.28 595.774 554.922C595.585 554.272 595.361 553.62 595.208 552.959L596.495 549.019L597.834 549.69C598.165 548.781 599.213 547.294 600.184 546.955C599.871 543.475 600.884 538.08 603.563 535.674C603.48 534.518 603.916 532.738 604.585 531.782C606.777 531.202 609.374 526.041 608.732 523.872C609.654 522.955 610.435 521.321 610.668 520.054C611.219 519.526 613.325 519.389 614.022 519.397C613.103 517.709 613.065 515.883 614.302 514.467L615.544 514.321C616.372 513.494 617.571 511.482 617.381 510.228L618.136 510.019L619.179 508.791L620.096 508.641C621.545 505.328 623.83 504.907 625.51 502.758C625.762 502.436 626.74 499.733 627.072 499.198C627.886 497.891 629.189 496.799 630.031 495.504C630.132 495.35 631.007 491.533 631.178 491.071C631.804 489.394 632.902 487.713 633.409 486.011C633.905 484.353 633.729 482.273 634.294 480.655C635.178 478.124 636.805 475.395 637.969 472.953C638.152 472.571 638.198 471.342 638.376 470.903C639.268 468.715 640.834 466.688 642.195 464.775C642.632 464.16 644.265 464.464 644.89 464.385C646.195 464.219 647.78 463.419 649.065 463.425C650.324 463.431 652.009 464.256 653.211 463.54L651.19 461.771L650.732 460.14L650.081 460.183L649.773 459.036L651.453 455.326C653.776 455.043 654.872 453.11 655.724 451.111C658.242 449.518 664.305 448.984 667.083 449.4C667.181 449.415 670.167 450.985 670.455 451.133C670.522 451.168 674.756 451.006 675.094 450.995L675.705 449.92C674.108 449.176 672.532 449.304 670.81 449.24L670.126 448.035L668.932 448.396L668.25 447.407L667.542 447.509C669.266 444.826 671.499 443.195 673.59 440.933C675.215 439.176 674.234 435.495 675.92 433.542C676.593 432.763 677.631 432.059 678.437 431.375C678.666 431.179 679.583 430.867 679.912 430.733L680.765 431.29C681.249 430.706 682.594 429.688 683.437 429.816C683.525 429.691 684.013 429.059 684.045 428.958C684.491 427.52 684.863 425.927 685.417 424.533C685.494 424.341 686.155 423.72 686.186 423.573C686.433 422.343 687.386 415.884 688.273 415.366L689.198 414.998C688.732 413.516 688.086 410.71 688.429 409.13L687.681 408.682L687.425 407.751C687.698 406.438 688.8 404.601 689.872 403.781L690.791 403.687L691.914 404.466L693.318 404.437C693.605 403.933 693.52 402.914 693.246 402.431L694.657 402.128L695.372 401.11L694.433 399.198C695.45 397.445 695.114 395.626 695.876 393.799C696.3 392.785 696.892 391.769 697.385 390.782C697.42 390.711 699.61 388.683 699.755 388.544L701.644 388.688L702.248 388.212C701.936 387.615 700.201 387.131 699.617 387.028C700.438 384.115 701.818 381.573 704.763 380.279L704.296 379.24L704.696 378.106C705.623 377.394 706.83 376.643 707.655 375.833C707.868 375.624 708.31 374.607 708.547 374.324C708.765 374.064 709.924 373.184 710.03 372.996C710.959 371.34 711.647 369.213 712.4 367.453L712.091 366.847C712.682 365.269 711.607 363.973 712.543 362.3C714.087 359.544 716.075 357.212 718.147 354.858C719.29 353.56 723.277 352.392 724.702 351.509C726.453 350.424 727.952 348.782 729.703 347.698C731.11 346.827 732.932 346.419 734.451 345.503C734.792 345.297 734.949 345.106 735.326 344.976C736.366 344.617 737.731 344.75 738.805 344.449C740.565 343.956 742.691 343.169 744.368 342.443C745.343 342.021 746.472 340.809 747.59 340.819L748.069 341.208C748.372 340.932 751.128 338.365 751.27 338.285C752.708 337.47 754.841 337.148 756.395 336.488C757.114 336.183 757.756 335.535 758.475 335.225C760.587 334.313 763.204 333.22 765.41 332.598C768.225 331.804 770.731 332.424 773.473 333.031C774.111 333.172 775.146 332.989 775.804 332.973L777.68 331.277C780.608 330.143 784.46 331.73 787.496 330.714C788.932 330.234 790.42 328.949 791.827 328.31C793.386 327.602 795.215 327.271 796.742 326.513C798.968 325.407 805.762 320.048 805.704 317.591L803.413 315.693L806.17 313.578L807.237 310.999C808.16 308.767 809.16 308.885 810.317 307.212C810.39 307.105 811.964 303.731 812.022 303.56C812.089 303.354 811.87 302.521 811.937 302.311C812.377 300.931 813.178 299.457 813.76 298.118L816.353 298.876C818.731 297.055 818.98 296.209 819.719 293.687C820.962 293.042 827.862 289.943 828.021 288.771L830.113 289.68C831.261 289.384 832.516 288.831 833.511 288.186L833.361 287.421L833.709 286.613C834.208 286.221 837.097 287.608 837.699 287.847L838.631 287.378L840.305 287.631L842.673 286.224L844.026 286.361L845.41 287.588C846.31 287.548 847.596 287.917 848.434 288.194C849.981 290.763 851.288 290.145 852.496 291.06C857.088 294.538 857.249 297.386 858.414 302.543L859.366 303.539L861.336 303.149L861.86 303.763L861.381 305.755L863.468 309.277C864.411 309.938 866.65 311.103 867.878 310.959L868.723 309.624L870.022 309.595C870.496 309.004 871.968 307.448 872.786 307.328L873.049 307.877L870.974 310.541L871.329 311.638L869.759 313.933C869.811 315.402 873.784 317.428 875.081 318.127L875.356 320.256L875.888 320.646L878.237 320.104L880.355 321.895L881.283 321.75L882.186 322.537L884.136 322.797L883.822 324.58L884.819 325.799L884.59 326.333L883.606 326.802L882.537 326.124L882.248 329.214C883.078 327.995 885.3 326.911 886.698 326.659C886.879 325.813 887.605 324.245 888.397 323.772L887.375 323.418L887.328 323.094L888.712 321.773L890.118 321.91L890.483 322.516L890.135 323.433C892.322 323.578 893.582 326.749 894.88 326.804L895.424 326.602L895.615 325.577L896.907 325.772C897.025 326.492 897.613 328.078 898.364 328.414L901.014 328.479C901.269 329.382 901.496 330.294 901.71 331.207L903.382 331.359C904.641 328.027 909.817 329.192 911.624 331.294C913.314 330.569 916.532 330.953 917.997 332.052L923.265 331.424L924.159 330.421L924.921 330.601L924.777 331.9L923.661 333.12L924.126 333.892L925.433 333.87C925.567 334.757 925.299 336.453 924.593 337.104C925.2 338.439 923.817 340.576 923.995 341.427C924.398 343.362 925.469 346.148 927.204 347.266L926.797 348.45C927.837 350.855 927.116 355.793 930.052 356.888L929.048 357.949L930.176 358.36C931.501 357.65 932.503 357.698 933.822 357.422C936.71 356.818 937.706 355.69 940.365 357.703L941.35 359.68L941.999 359.587L942.937 358.742L944.8 360.041L944.989 361.081C944.784 362.119 943.088 362.711 942.187 362.799C941.268 363.794 940.363 365.08 939.345 365.925C939.184 366.059 938.374 366.241 938.145 366.379C937.3 366.888 936.624 367.842 935.763 368.328C934.984 368.769 933.631 369.018 932.786 369.293C928.39 370.725 925.735 371.889 924.254 376.391C922.528 376.788 922.056 378.347 920.775 379.177C917.814 381.097 918.084 378.613 916.531 383.01C916.35 383.518 915.992 384.411 916.188 385.031C914.648 387.417 913.216 389.077 911.072 390.82L908.813 392.653C908.595 392.904 907.584 395.091 907.286 395.548C906.594 396.606 905.64 397.527 904.935 398.579C902.435 402.317 899.966 418.93 900.364 424.455C900.645 428.379 901.983 431.983 903.276 435.649C903.319 435.77 903.347 436.566 903.36 436.739L901.511 437.179L901.936 437.627L903.65 438.053L904.123 438.658L903.932 439.9C904.016 440.056 904.698 441.238 904.707 441.33C905.104 444.812 905.391 448.366 905.907 451.832C906.386 455.06 909.604 461.854 911.969 464.188C912.927 465.134 914.665 465.405 915.927 465.754L916.131 466.144L915.953 466.787L911.222 465.964L910.382 467.458C910.367 469.154 910.553 470.492 912.009 471.464L912.777 470.829L913.636 471.016L913.991 471.998L913.112 472.733C911.879 474.97 914.478 484.07 912.855 485.155C910.607 485.404 908.045 486.368 906.064 487.422C904.925 488.392 905.028 491.254 905.401 492.561C906.73 493.21 907.935 495.553 908.203 496.915L909.865 497.282L910.066 497.939L909.516 498.466C906.499 498.428 903.201 501.406 901.207 503.302C900.783 507.303 897.332 508.524 896.396 510.722C895.275 513.355 894.342 515.715 893.943 518.582C893.727 520.136 893.838 521.807 893.563 523.346C893.125 525.812 892.24 528.452 891.289 530.756L889.575 534.908C889.447 535.459 889.596 535.792 889.611 536.356L889.685 539.253C889.662 540.119 888.805 541.596 889.345 542.386C889.157 543.093 888.77 544.861 888.143 545.453C887.309 546.239 884.369 548.655 884.167 549.748C883.867 551.382 883.705 553.97 883.116 555.471C882.939 555.918 882.642 556.055 882.342 556.429C880.78 558.361 879.696 559.981 876.936 559.874C875.953 560.27 874.539 563.506 874.199 564.421C873.172 565.045 868.076 568.054 867.876 568.282C865.172 571.384 863.543 574.008 862.12 578.011C865.002 584.394 864.527 584.236 862.632 590.931C862.146 592.646 856.378 596.519 855.001 598.344L853.36 601.27C852.895 602.1 852.204 603.247 852.179 604.291L852.34 606.755C852.393 607.575 852.472 608.684 852.867 609.46C855.513 614.662 855.077 614.845 859.205 618.771C860.082 619.605 860.177 622.494 859.762 623.562H858.674L857.82 625.31C853.358 627.816 850.109 632.374 850.68 637.74L851.606 639.119L851.311 639.596L851.776 640.014C850.101 644.975 850.708 648.022 849.876 652.68C849.423 655.215 849.075 657.848 848.504 660.354C848.038 662.397 846.595 664.52 845.905 666.524C845.429 667.905 845.122 669.44 844.742 670.856C844.36 672.274 842.64 673.256 842.466 675.063C842.26 677.178 842.183 679.848 842.275 681.971C842.333 683.283 842.885 684.657 842.939 685.969C842.971 686.746 842.091 688.631 841.831 689.176C841.118 690.666 840.46 692.037 839.59 693.444C837.543 696.758 836.387 698.048 838.13 701.768C837.757 702.819 837.14 703.971 836.923 705.032C836.393 707.616 836.342 710.393 835.73 712.95C835.668 713.212 834.688 714.638 834.53 715.022C833.725 716.975 833.256 720.168 833.048 722.217C832.859 724.072 833.194 726.098 832.936 727.934C832.917 728.067 831.099 735.688 830.915 736.082C830.216 737.574 828.976 739.057 828.402 740.58C827.937 741.814 828.042 743.463 827.654 744.746C827.403 745.578 826.619 746.402 826.394 747.234C825.967 748.828 826.41 750.994 826.656 752.566C826.833 753.683 827.264 755.386 828.606 755.724L828.651 756.734L829.347 757.58C825.931 761.42 825.55 762.945 824.918 768.182C824.811 769.071 824.87 769.596 824.643 770.463C824.217 772.092 822.999 774.158 822.3 775.731C821.381 779.975 821.675 779.135 819.478 782.395C819.357 785.026 819.435 787.901 819.105 790.502C818.986 791.441 818.22 792.465 818.083 793.41C818.043 793.683 818.462 794.945 818.418 795.199C818.076 797.166 817.261 799.328 816.719 801.263C816.697 801.341 816.252 801.931 816.18 802.034L814.709 802.2C813.666 802.811 809.353 808.641 809.19 809.36C808.924 810.538 808.745 812.048 808.331 813.165C808.21 813.491 807.212 814.622 807.143 814.884C806.545 817.167 806.341 819.857 805.962 822.2L806.881 824.063C807.192 825.772 803.447 827.918 802.555 828.848C800.331 831.168 802.527 837.735 803.921 839.95L802.058 845.3C802.403 845.859 802.457 846.954 802.267 847.566L803.645 850.505L804.525 850.872L804.925 851.528L802.799 853.592L801.224 853.045C800.639 854.371 799.373 856.986 798.305 858.024L795.261 857.938C794.174 858.672 791.574 860.899 791.298 862.313L791.757 863.569C788.892 865.708 790.054 866.11 789.479 868.852C789.053 870.885 788.341 872.971 787.788 874.979C787.533 875.901 786.673 876.655 786.476 877.946L785.353 878.776L785.052 880.024C783.141 880.835 783.89 884.342 783.601 885.258C782.451 888.903 779.805 891.797 777.434 894.684L775.734 895.03C773.25 897.706 772.633 902.844 771.016 906.081C769.878 908.358 767.582 911.929 765.977 913.905C765.918 913.977 763.789 915.132 763.567 915.255C763.487 915.913 763.025 917.566 762.375 917.933C759.766 917.576 757.263 918.378 755.186 920.06L753.339 921.556C752.787 922.101 752.004 925.183 752.08 925.722C752.509 928.788 755.357 933.861 753.68 937.003L752.748 937.12C752.607 937.27 751.431 938.511 751.391 938.599C750.976 939.507 750.916 940.839 750.603 941.812C750.104 943.359 748.896 945.531 747.992 946.921C747.846 946.987 746.761 947.442 746.7 947.505C744.188 950.087 741.635 953.153 738.925 955.495C737.553 956.681 735.272 957.763 733.701 958.735C732.238 959.643 729.961 959.969 728.367 960.778C726.256 961.852 724.667 964.321 722.724 965.63L718.971 967.909C717.753 968.651 717.476 968.768 717.237 968.94C717.047 969.077 716.879 969.249 716.27 969.799L714.622 971.295C713.834 972.418 712.835 974.584 712.312 975.871C710.567 980.174 711.271 988.029 708.821 990.941C707.407 992.621 705.32 993.916 703.946 995.617C703.883 995.697 702.001 999.312 701.937 999.48C700.909 1002.21 700.229 1005.15 699.313 1007.93C698.581 1010.15 697.529 1012.41 696.931 1014.66C696.176 1017.5 695.753 1020.59 695.179 1023.48L694.825 1023.77C693.691 1026.99 692.677 1030.38 691.387 1033.54C690.993 1034.5 690.01 1035.42 689.675 1036.39L685.101 1049.6C684.991 1049.92 684.014 1050.97 683.867 1051.33C683.261 1052.81 682.696 1054.83 682.319 1056.39C680.606 1063.48 682.51 1075.63 683.611 1082.84C683.622 1082.9 683.533 1083.07 683.51 1083.14C683.41 1083.45 682.68 1085.57 682.66 1085.75C682.551 1086.78 682.921 1087.99 682.877 1089.03C682.82 1090.37 681.919 1091.96 681.971 1093.26C682.028 1094.71 682.475 1096.42 682.705 1097.86L681.694 1100.42C682.231 1101.63 682.423 1103.49 682.134 1104.78L682.837 1105.03L683.061 1105.51C676.895 1110.28 683.41 1114.15 683.519 1116.43C683.355 1116.79 681.451 1120.99 681.455 1121.07C681.573 1124.2 681.359 1127.42 682.504 1130.39C682.809 1131.18 683.923 1132.48 683.594 1133.38C682.07 1134.22 680.169 1136.74 680.128 1138.55L678.611 1139.08L678.257 1139.97L678.48 1141.23C677.733 1144.13 671.359 1145.17 670.949 1145.78C671.089 1147.56 670.539 1149.44 670.198 1151.16C669.116 1156.61 671.668 1159.42 674.446 1163.76L674.262 1165.85L675.181 1167.76L674.945 1168.42C674.487 1168.84 673.28 1168.83 672.734 1168.71L671.808 1168.1L670.496 1164.15L668.81 1163.97C667.965 1162.74 666.279 1160.47 664.998 1159.64L662.787 1159.39L661.114 1157.65L660.583 1158.78L660.059 1159.02L659.37 1157.41C658.666 1156.66 656.596 1156.37 655.657 1156.42L651.372 1153.24L650.671 1153.35L647.456 1156.67C647.105 1158.74 646.439 1163.81 643.812 1164.06L642.533 1163.58C641.747 1162.59 640.991 1161.58 640.222 1160.58L639.121 1160.63C637.948 1157.71 640.379 1152.98 639.815 1149.42C639.156 1145.24 636.384 1144.34 634.854 1141.86L633.896 1139.24C632.591 1135.66 632.724 1134.62 635.89 1132.14C635.5 1131.35 635.326 1129.7 635.733 1128.86C638.896 1127.76 638.285 1123.63 636.706 1121.47L637.466 1120.22C638.207 1120.02 640.097 1119.19 640.328 1118.32C639.857 1116.58 638.448 1109.16 636.652 1108.52C636.419 1107.66 636.099 1105.87 636.202 1105.01L636.324 1103.98C634.733 1098.79 632.345 1093.1 632.211 1087.61C630.614 1086.05 630.419 1083.48 629.151 1081.8C629.045 1081.66 625.625 1078.7 625.267 1078.38C625.222 1078.34 624.854 1077.31 624.808 1077.19L624.795 1076.96C624.702 1074.93 623.992 1069.03 622.576 1067.81L622.589 1065.06C621.713 1063.58 618.521 1058.24 617.15 1057.22C615.892 1056.28 614.242 1056.45 613.084 1054.28C612.227 1052.67 612.23 1050.69 611.181 1049.01C610.163 1047.38 608.404 1045.46 606.89 1044.34C605.877 1043.6 604.472 1043.16 603.399 1042.47C602.135 1041.67 601.013 1040.56 599.737 1039.78C598.189 1038.82 596.406 1038.04 594.791 1037.19C592.132 1035.8 589.564 1033.9 586.824 1032.63C584.141 1031.38 580.784 1030.27 579.022 1027.7C580.083 1027.26 584.452 1030.08 585.484 1030.65L586.297 1030.47L586.771 1029.58C586.738 1028.41 583.46 1025.99 582.413 1025.51L580.778 1026.04L579.729 1025.67L578.206 1026.86L577.274 1026.62C576.333 1025.54 575.111 1024.42 574.663 1023.03L575.726 1022.45L576.074 1021.25L575.077 1021.42C574.351 1020.49 573.83 1018.12 573.634 1017L573.043 1018.31L572.229 1018.19L571.769 1015.98L570.78 1016.16C570.276 1015.8 569.827 1015.19 569.441 1014.72L569.781 1017.46L569.25 1018.6C568.43 1018.48 566.427 1014.21 565.885 1013.21L564.078 1012.43L563.901 1012.79L564.532 1016.43L567.733 1018.53L568.259 1019.61L567.727 1020.14C562.883 1017.92 561.176 1014.84 557.019 1012.47L555.436 1013.06C555.075 1012.57 555.034 1011.52 555.214 1010.97C554.738 1010.14 554.184 1009.42 553.454 1008.81C551.997 1007.59 550.095 1006.3 548.808 1004.93C546.93 1002.93 545.228 1000.4 543.518 998.229C543.17 997.79 542.513 997.479 542.181 997.032C539.842 993.915 536.885 987.368 533.321 985.622Z" stroke="white" stroke-width="1.4173" stroke-miterlimit="3.8637" stroke-linejoin="round"/>
<path d="M376.739 693.997L376.515 692.431L375.255 690.958C376.679 689.989 378.11 688.122 378.78 686.548C379.201 687.277 380.286 688.583 381.134 688.864L381.074 689.759L377.196 691.911L376.739 693.997Z" stroke="white" stroke-width="1.4173" stroke-miterlimit="3.8637" stroke-linejoin="round"/>
<path d="M375.946 721.944L374.652 721.288L373.59 721.888L373.354 721.296C373.855 720.644 374.888 718.79 374.646 717.896C373.127 716.466 371.13 713.597 370.814 711.464L368.347 711.53L367.409 713.557L366.759 713.739C366.031 713.233 365.037 712.169 364.759 711.3L364.878 710.585C365.749 709.624 366.267 709.075 367.582 708.614L369.811 708.788L371.571 707.177L374.577 708.781L376.165 708.658L376.578 710.621C377.588 711.125 378.667 713.455 378.993 714.432L378.461 714.975L377.641 714.137L376.762 714.44L375.765 717.299L375.943 717.955L377.819 717.711L378.349 718.309C376.354 720.172 377.04 719.297 375.946 721.944Z" stroke="white" stroke-width="1.4173" stroke-miterlimit="3.8637" stroke-linejoin="round"/>
<path d="M379.566 722.262L378.707 724.26L377.244 724.801L376.594 724.088L376.063 724.327L375.478 724.03L375.413 723.315L376.298 723.25L377.238 722.241L378.589 721.938L379.566 722.262Z" stroke="white" stroke-width="1.4173" stroke-miterlimit="3.8637" stroke-linejoin="round"/>
<path d="M362.473 717.44L359.718 720.002L357.132 720.363L356.784 721.322C357.548 722.998 357.151 723.422 357.199 724.773C357.26 726.523 358.052 726.271 357.263 728.41L355.447 730.142L356.155 731.687L355.156 732.648C355.445 733.181 356.858 735.451 356.692 735.982L356.279 736.515C354.883 736.269 351.389 736.24 350.288 737.423L348.351 736.948L346.88 737.907L345.469 737.966L345.056 737.554C345.262 736.695 347.471 735.165 348.166 734.745L349.577 735.575C351.077 735.524 352.572 733.337 352.975 732.112L352.857 730.739L350.973 728.241L351.261 727.585L352.968 728.118C353.674 726.95 353.154 725.602 354.196 724.423L354.077 723.882L352.608 723.052L352.312 722.222C353.02 721.445 353.122 719.48 352.956 718.527C353.858 717.873 354.966 716.506 355.297 715.423L356.356 715.3L357.944 716.607L361.59 716.781L362.473 717.44Z" stroke="white" stroke-width="1.4173" stroke-miterlimit="3.8637" stroke-linejoin="round"/>
<path d="M371.45 741.202L369.803 741.317L369.331 740.307L367.507 740.789L366.392 739.477L367.153 738.821L370.268 739.116L370.852 737.925L371.85 737.566L372.263 736.851L370.617 735.956C369.947 736.847 368.058 737.663 367.034 737.927L365.861 737.392C366.803 736.603 367.765 735.232 368.143 734.058L368.025 733.22L366.909 731.849L367.493 731.495C368.7 731.79 370.69 731.354 371.725 730.708L371.954 728.925L372.958 730.831L372.663 732.679L373.49 732.917L374.546 734.757L375.254 734.939C375.242 734.267 375.686 733.234 376.193 732.789L376.132 731.777L377.011 731.3L377.366 730.585L376.362 727.728L376.531 727.072L378.885 726.17L380.645 727.065L381.407 725.333L382.115 725.456L382.528 725.991C382.579 726.891 382.29 728.768 381.59 729.448L382.063 732.782C382.695 732.665 383.457 731.77 383.709 731.231L383.938 728.792L384.529 728.431L385.052 728.728L385.525 730.576L386.175 730.871L387.991 729.262L387.526 728.785L386.403 729.146L386.115 728.546L388.398 724.915L389.283 725.565L389.462 727.774L390.578 729.137L391.751 729.26L392.52 727.412C393.628 728.123 394.894 730.879 395.166 732.053C395.52 733.58 394.678 734.596 395.992 736.463L398.111 737.416L397.947 739.055L394.469 739.92L393.117 737.596C392.055 737.221 388.346 737.776 387.237 737.965C386.265 738.969 385.154 740.399 384.069 741.242C383.886 741.383 382.541 741.676 382.251 741.84C380.634 742.75 377.76 744.846 377.441 746.793L377.795 747.393L378.91 747.45L379.087 747.927L378.09 748.945L378.03 750.966L377.565 751.204C376.203 750.329 371.713 751.003 370.28 751.333L369.276 750.864L368.507 747.702L367.984 747.284L365.104 747.11L364.454 745.745L363.81 745.384L363.337 744.013L362.51 743.603C362.639 741.076 362.333 741.902 363.443 739.726H364.389C364.316 740.951 365.952 745.093 366.98 745.499L367.977 744.663L368.856 744.899L370.568 746.985L370.916 746.862L371.391 745.368L372.506 745.188L374.382 746.198L375.261 746.083C374.115 744.366 378.013 741.669 376.842 739.884L376.134 739.587L375.196 740.417L374.199 739.292L373.491 739.351L371.45 741.202Z" stroke="white" stroke-width="1.4173" stroke-miterlimit="3.8637" stroke-linejoin="round"/>
<path d="M356.555 758.09L355.144 757.854L354.553 756.366L356.615 756.901L357.783 755.702L358.898 755.579C359.203 754.831 361.899 753.739 362.597 754.143L362.537 754.922C361.693 755.811 357.774 757.499 356.555 758.09Z" stroke="white" stroke-width="1.4173" stroke-miterlimit="3.8637" stroke-linejoin="round"/>
<path d="M310.583 780.497L308.936 779.731V779.37L309.698 778.829L309.756 777.637L311.101 776.44L311.632 777.87L312.691 777.985L312.985 778.526L311.58 779.305L311.115 780.256L310.583 780.497Z" stroke="white" stroke-width="1.4173" stroke-miterlimit="3.8637" stroke-linejoin="round"/>
<path d="M358.55 789.62L357.847 789.382L357.317 788.544L357.435 788.011C358.019 787.407 359.351 786.902 360.192 786.993L360.953 786.335L361.656 786.271L362.831 787.583L362.54 788.06L359.667 788.365L358.55 789.62Z" stroke="white" stroke-width="1.4173" stroke-miterlimit="3.8637" stroke-linejoin="round"/>
<path d="M350.805 791.54L350.045 790.882C350.159 790.042 351.502 788.597 352.092 788.081C351.834 787.647 351.732 786.753 351.975 786.292L351.207 784.919L351.672 782.833C351.366 782.364 350.909 781.21 351.141 780.632L352.901 781.757L354.665 781.454C354.63 782.45 354.985 783.761 355.492 784.616L354.672 785.864L354.968 786.522L355.669 786.702L356.548 786.284L357.139 787.055L356.615 787.891L355.321 788.311L354.797 789.264L355.617 790.694L355.093 791.112C354.099 790.577 351.74 791.141 350.805 791.54Z" stroke="white" stroke-width="1.4173" stroke-miterlimit="3.8637" stroke-linejoin="round"/>
<path d="M393.785 819.848L392.493 818.895L392.728 817.524L391.437 815.858L391.608 815.323L394.312 814.239L395.189 815.848C394.382 816.68 393.97 818.619 394.192 819.723L393.785 819.848Z" stroke="white" stroke-width="1.4173" stroke-miterlimit="3.8637" stroke-linejoin="round"/>
<path d="M380.301 820.042L379.364 819.862C378.925 819.383 378.758 818.083 378.773 817.481L379.357 817.12L381.174 817.3L381.823 819.15L380.301 820.042Z" stroke="white" stroke-width="1.4173" stroke-miterlimit="3.8637" stroke-linejoin="round"/>
<path d="M336.18 833.958L335.477 833.187L334.54 833.605V832.531L333.771 831.635L334.472 830.559L334.295 829.967L332.3 828.242L332.531 827.166L333.35 826.33L334.93 826.568C335.827 825.662 338.511 825.334 339.675 825.363L340.264 825.722C340.843 826.57 339.688 829.841 339.332 830.667L338.341 830.847L337.049 831.988L336.826 833.836L336.18 833.958Z" stroke="white" stroke-width="1.4173" stroke-miterlimit="3.8637" stroke-linejoin="round"/>
<path d="M930.471 405.916L928.95 404.307L929.013 403.708L930.687 403.809L931.264 402.517L932.293 402.329L933.896 403.022L934.664 404.776L935.732 405.187L934.846 406.14C934.1 406.485 931.722 405.716 930.471 405.916Z" stroke="white" stroke-width="1.4173" stroke-miterlimit="3.8637" stroke-linejoin="round"/>
<path d="M512.776 691L512.715 689.391L514.014 688.143L514.725 688.151L514.31 689.161L514.658 689.694L512.776 691Z" stroke="white" stroke-width="1.4173" stroke-miterlimit="3.8637" stroke-linejoin="round"/>
<path d="M475.216 770.903C474.888 767.272 474.839 761.649 475.642 758.155C476.093 756.192 477.352 753.413 478.176 751.544C479 749.675 480.614 747.69 481.707 745.952L482.296 745.829L483.059 747.026L482.88 747.618C479.835 749.69 477.873 753.768 477.409 757.327C477.372 757.608 477.683 758.634 477.638 758.878C477.447 759.884 476.654 760.978 476.523 761.976C476.222 764.269 476.359 766.915 476.281 769.244C476.276 769.406 475.982 770.402 475.926 770.617L475.216 770.903Z" stroke="white" stroke-width="1.4173" stroke-miterlimit="3.8637" stroke-linejoin="round"/>
<path d="M498.299 800.034C498.318 798.596 498.498 796.245 499.133 794.909L499.54 794.786C499.468 795.659 499.394 799.458 498.772 799.975L498.299 800.034Z" stroke="white" stroke-width="1.4173" stroke-miterlimit="3.8637" stroke-linejoin="round"/>
<path d="M498.006 801.702C498.088 802.806 497.173 804.477 496.416 805.218L496.063 804.798C496.292 803.766 497.173 802.356 498.006 801.702Z" stroke="white" stroke-width="1.4173" stroke-miterlimit="3.8637" stroke-linejoin="round"/>
<path d="M491.935 817.249L491.706 816.536C492.472 815.343 492.611 809.931 493.124 807.534L493.655 807.001C494.354 809.446 493.103 813.929 492.704 816.593L491.935 817.249Z" stroke="white" stroke-width="1.4173" stroke-miterlimit="3.8637" stroke-linejoin="round"/>
<path d="M490.229 822.555L490.753 823.407C490.607 824.495 489.927 828.43 489.048 829.167C488.625 828.006 489.86 823.711 490.229 822.555Z" stroke="white" stroke-width="1.4173" stroke-miterlimit="3.8637" stroke-linejoin="round"/>
<path d="M486.404 834.948L486.05 834.587C486.118 833.855 487.704 831.22 488.111 830.48L488.459 830.898C488.175 831.805 487.188 834.692 486.404 834.948Z" stroke="white" stroke-width="1.4173" stroke-miterlimit="3.8637" stroke-linejoin="round"/>
<path d="M483.627 848.063L482.807 847.997L482.578 847.587C484.855 845.261 482.844 841.034 484.874 839.064H485.518C484.323 841.523 485.283 842.488 485.106 843.472C484.845 844.918 484.084 846.643 483.627 848.063Z" stroke="white" stroke-width="1.4173" stroke-miterlimit="3.8637" stroke-linejoin="round"/>
<path d="M479.041 862.426C478.177 860.289 477.462 856.85 478.583 854.674L479.816 853.656L480.4 853.597C478.936 855.937 479.205 859.71 479.396 862.302L479.041 862.426Z" stroke="white" stroke-width="1.4173" stroke-miterlimit="3.8637" stroke-linejoin="round"/>
<path d="M479.095 868.569C478.753 867.311 478.642 865.676 478.865 864.389L479.921 864.93C480.162 865.418 479.895 867.877 479.857 868.502L479.095 868.569Z" stroke="white" stroke-width="1.4173" stroke-miterlimit="3.8637" stroke-linejoin="round"/>
<path d="M827.46 979.211L827.065 979.99L822.924 978.625C821.418 976.68 821.024 975.828 818.994 974.75L819.152 973.523C818.716 972.585 816.712 968.927 817.07 967.986C818.097 966.73 823.437 966.574 824.906 967.509C825.526 967.161 826.794 966.966 827.465 967.284C827.692 968.809 827.957 972.8 827.117 974.229L825.895 975.1L825.841 976.235L827.46 979.211Z" stroke="white" stroke-width="1.4173" stroke-miterlimit="3.8637" stroke-linejoin="round"/>
<path d="M554.298 1056.32C555.069 1056.1 556.216 1055.37 556.633 1054.66L557.046 1052.69C558.001 1051.87 559.585 1051.3 560.787 1051.03L562.82 1052.59L562.584 1054.2C559.8 1055.62 558.55 1059.28 555.281 1059.49C554.794 1058.48 554.199 1057.48 554.298 1056.32Z" stroke="white" stroke-width="1.4173" stroke-miterlimit="3.8637" stroke-linejoin="round"/>
<path d="M839.318 1121.57L840.938 1120.13L842.534 1121.11C842.065 1122.89 842.524 1125.64 843.617 1127.13L842.665 1127.41L841.707 1129.24L841.871 1131.76C843.461 1133.77 848.414 1135.61 848.912 1136.76L847.35 1142.17L846.4 1142.65L844.805 1141.67L842.719 1142.32L841.872 1142.03L841.703 1140.19L836.918 1136.27L833.985 1136.63C833.288 1136.61 832.065 1134.07 831.741 1133.51L827.508 1131.15L827.423 1130.47L828.192 1128.92L827.451 1127.27L827.85 1125.24L825.599 1122.7C825.507 1122.37 825.47 1121.65 825.703 1121.35C826.849 1121.15 827.689 1121.58 828.729 1121.57C832.325 1121.55 835.682 1121.12 839.318 1121.57Z" stroke="white" stroke-width="1.4173" stroke-miterlimit="3.8637" stroke-linejoin="round"/>
<path d="M851.002 1157.04L850.486 1156.8L850.038 1154.47L851.79 1154.13L852.428 1154.5L852.997 1155.7L852.815 1156.41L851.002 1157.04Z" stroke="white" stroke-width="1.4173" stroke-miterlimit="3.8637" stroke-linejoin="round"/>
<path d="M392.304 0.0310059C391.704 0.802006 392.74 4.24801 392.21 6.27001L394.068 6.98501C393.775 7.59801 392.911 8.62401 392.192 8.76801L390.805 11.366C391.605 12.358 392.967 12.474 394.132 12.853C394.049 13.695 394.306 15.256 394.932 15.899C397.1 15.389 400.584 15.955 401.456 15.618L401.836 16.167L401.612 16.65L400.569 16.751L399.958 17.892L398.377 17.228L397.439 18.253C397.265 18.887 397.776 20.174 398.075 20.7C399.369 22.349 401.852 19.855 403.064 20.519L403.496 20.96C403.547 21.699 403.874 23.611 404.46 24.165C407.068 24.314 406.202 24.495 408.679 23.602L409.787 22.144L410.391 22.093L412.045 20.426L413.409 20.383C413.894 20.013 416.336 18.332 416.44 17.85L416.019 15.677L414.275 15.071L416.59 12.53L414.464 11.158L413.204 11.584L412.988 11.093C413.177 9.86301 413.702 9.18501 414.431 8.27801L415.855 8.34301L416.958 7.54201L417.778 7.70801L417.882 8.19801L416.721 9.93101C418.089 9.22301 420.889 9.51501 422.252 10.025L420.631 7.24601L421.464 5.89601L423.216 5.68701L423.985 6.01901L424.209 5.53501L422.641 2.97301L422.702 2.09901L425.117 1.30501L424.958 0.764006L425.687 0.0790059" stroke="white" stroke-width="1.4173" stroke-miterlimit="3.8637" stroke-linejoin="round"/>
<path d="M901.316 329.709L886.482 332.345L884.214 334.605L885.347 338.048C886.427 339.857 885.962 341.382 886.847 343.298L889.097 347.048C885.178 348.41 881.631 351.26 877.597 350.048L871.097 345.798C870.447 345.522 867.463 345.557 866.899 345.131C866.828 345.078 861.966 339.823 861.867 339.682C859.54 336.385 858.733 332.772 855.631 329.553C855.799 328.699 857.168 326.153 857.899 325.785L874.121 317.624" stroke="white" stroke-width="1.5591" stroke-miterlimit="3.8637" stroke-linejoin="round"/>
<path d="M774.058 333.03C778.345 336.71 783.279 340.893 788.166 343.735C793.197 346.66 797.011 347.169 801.537 351.92C802.284 354.872 802.563 358.397 802.316 361.43C801.235 363.187 799.872 366.143 798.512 367.611L793.81 370.62C792.035 371.299 789.143 371.162 787.125 371.509L784.692 373.616C784.516 375.754 783.644 378.472 782.424 380.252L783.794 383.443L781.408 385.535L781.361 390.516C783.643 391.962 785.986 393.924 787.761 395.965L787.312 400.494L789.58 404.577L791.455 405.085L795.204 406.1C798.369 406.19 799.137 405.271 803.446 406.818L806.594 410.549C808.993 413.392 811.41 413.68 811.683 417.31C811.742 418.074 811.71 420.506 811.336 421.233C810.844 422.19 809.165 423.634 808.761 424.549C807.612 427.154 808.212 431.098 809.682 433.459C811.136 435.795 815.632 440.192 817.739 442.384L818.66 448.727" stroke="white" stroke-width="1.5591" stroke-miterlimit="3.8637" stroke-linejoin="round"/>
<path d="M818.662 448.727L825.205 448.894C830.1 447.126 833.519 442.806 836.592 438.807C837.074 438.671 841.745 437.395 841.906 437.31C843.547 436.443 846.43 433.038 846.913 431.131C846.554 428.134 846.476 424.768 846.913 421.772C847.104 421.517 848.615 419.46 848.733 419.362C849.941 418.362 857.412 413.62 858.889 413.045C859.823 412.682 864.443 411.837 864.983 411.548C868.068 409.897 872.675 404.715 876.227 403.122C878.323 402.182 881.189 402.074 883.196 401.025C884.143 400.53 884.527 400.015 885.378 399.369L889.74 396.058C891.81 394.206 893.505 391.62 895.646 389.884C897.281 388.558 899.834 387.928 901.433 386.576C901.433 386.576 904.595 387.547 905.345 385.797C906.095 384.047 908.095 381.797 908.095 381.797C908.095 381.797 906.345 381.047 905.345 380.047C904.345 379.047 903.095 376.547 904.845 374.797C906.595 373.047 907.595 372.047 910.595 372.547C913.595 373.047 916.595 372.547 918.345 370.797C920.095 369.047 923.345 368.797 924.595 368.297C925.845 367.797 927.845 366.797 929.345 366.797C930.845 366.797 935.752 368.338 935.752 368.338" stroke="white" stroke-width="1.5591" stroke-miterlimit="3.8637" stroke-linejoin="round"/>
<path d="M802.119 471.784C802.119 471.784 797.097 471.799 795.597 471.299C794.097 470.799 793.847 469.799 792.097 468.049C790.347 466.299 791.847 464.049 793.097 462.049C794.347 460.049 791.097 458.049 790.847 455.799C790.597 453.549 790.847 451.799 787.597 449.799C784.347 447.799 784.847 444.049 784.847 444.049C784.847 444.049 779.847 443.799 780.513 441.992L780.813 437.566C780.872 436.703 781.087 436.209 780.962 435.352C780.953 435.29 778.609 428.564 778.529 428.403C777.333 425.992 775.042 424.487 772.844 423.206L766.954 419.771C764.359 418.45 755.537 416.239 753.89 414.906C752.155 413.502 750.581 410.698 749.025 409.008C747.538 407.394 742.097 406.3 743.847 403.05C745.597 399.8 746.347 398.05 744.597 396.3C742.847 394.55 742.347 393.8 740.847 395.3C739.347 396.8 737.597 398.05 735.597 395.8C733.597 393.55 733.097 392.05 733.097 392.05C733.097 392.05 730.097 392.55 727.097 392.3C724.097 392.05 718.347 391.05 720.347 388.05C722.347 385.05 723.347 384.8 721.597 382.8C719.847 380.8 716.347 380.05 714.597 380.05C712.847 380.05 709.847 380.3 709.847 380.3L704.751 380.294" stroke="white" stroke-width="1.5591" stroke-miterlimit="3.8637" stroke-linejoin="round"/>
<path d="M781.954 508.572C783.445 505.466 785.738 501.6 788.024 499.074C790.402 496.445 795.226 493.481 797.283 490.944C799.628 488.051 798.441 483.418 799.693 480.083C801.438 475.432 801.673 477.623 802.119 471.784" stroke="white" stroke-width="1.5591" stroke-miterlimit="3.8637" stroke-linejoin="round"/>
<path d="M769.175 511.56L781.954 508.572" stroke="white" stroke-width="1.5591" stroke-miterlimit="3.8637" stroke-linejoin="round"/>
<path d="M678.427 431.386L683.378 436.475C686.3 437.839 691.371 437.913 694.482 437.71" stroke="white" stroke-width="1.5591" stroke-miterlimit="3.8637" stroke-linejoin="round"/>
<path d="M694.497 437.71L695.851 438.569L698.59 440.287C699.061 440.798 699.113 441.24 699.448 441.849L701.165 444.973C701.853 446.797 701.845 449.476 702.7 451.168C703.021 451.804 703.445 451.999 703.921 452.529C707.01 455.973 709.51 457.529 713.496 459.948C717.247 462.223 719.802 462.246 723.085 465.859C724.07 470.179 722.737 472.005 722.779 475.37C722.812 478.158 723.659 481.037 723.7 483.825C723.738 486.419 722.488 484.967 723.558 489.007L723.866 490.165C724.259 490.336 728.624 492.276 728.732 492.29C729.226 492.357 742.896 492.128 744.392 492.025C749.08 491.701 753.83 490.237 758.518 491.305C762.915 493.716 765.747 499.04 767.959 503.303C768.376 504.109 768.793 504.492 769.03 505.368C769.071 505.519 769.16 511.036 769.172 511.558" stroke="white" stroke-width="1.5591" stroke-miterlimit="3.8637" stroke-linejoin="round"/>
<path d="M813.583 529.629L809.474 524.941C805.647 524.1 800.31 524.956 796.696 526.269L791.828 523.993L790.176 519.913L785.759 519.448C785.535 519.137 783.052 515.763 783.018 515.667C782.357 513.773 782.262 510.611 781.957 508.571" stroke="white" stroke-width="1.5591" stroke-miterlimit="3.8637" stroke-linejoin="round"/>
<path d="M813.583 529.629L815.812 530.893L820.269 533.421C821.082 533.673 821.599 533.485 822.451 533.526C825.806 533.689 829.01 533.976 832.127 535.411C834.759 536.622 837.684 538.974 840.041 540.715C840.552 540.755 845.809 541.208 845.97 541.182C847.507 540.934 854.281 537.238 855.844 536.222L854.31 531.239C856.27 531.718 858.692 532 860.544 532.763C861.999 533.364 863.544 533.909 864.961 534.585C866.791 535.457 868.557 536.688 870.418 537.466C876.415 539.979 882.717 541.946 888.793 544.304" stroke="white" stroke-width="1.5591" stroke-miterlimit="3.8637" stroke-linejoin="round"/>
<path d="M614.069 514.691C614.839 516.127 615.569 517.585 616.293 519.044C617.973 519.995 620.439 521.043 621.914 522.227L624.45 525.152C626.931 528.012 629.413 530.548 632.624 532.569C636.9 535.259 641.343 538.028 645.961 540.099C649.712 541.783 654.406 542.454 657.962 544.506C661.644 546.631 660.59 547.957 665.513 548.952C666.005 549.052 666.273 549.237 666.773 549.207C671.727 548.907 675.509 547.067 680.922 547.882L683.189 545.624C683.273 543.359 684.975 539.885 686.829 538.536L690.073 536.932C690.705 536.62 691.013 536.316 691.695 536.131L696.86 535.441C697.867 535.305 698.427 535.038 699.443 535.095C699.515 535.099 705.443 536.87 705.538 536.922C705.771 537.048 708.267 539.718 708.726 540.097C710.17 541.288 711.895 542.344 713.428 543.43L717.088 543.589C718.431 542.748 720.214 541.319 721.648 540.734C722.843 540.246 724.627 540.355 725.899 539.989C727.648 539.485 729.037 538.609 730.899 538.138L734.852 537.142C736.41 536.418 738.099 534.649 739.577 533.681C741.131 532.663 743.328 531.843 744.726 530.675C747.576 528.298 750.274 525.17 752.923 522.542L754.765 522.697L757.035 525.421C760.728 520.57 764.918 515.917 769.177 511.562" stroke="white" stroke-width="1.5591" stroke-miterlimit="3.8637" stroke-linejoin="round"/>
<path d="M786.774 566.036C790.447 562.483 794.475 558.907 798.703 556.014C799.41 554.348 799.491 552.552 799.569 550.782C799.605 549.97 799.97 547.352 800.38 546.658C801.455 544.828 806.526 541.27 808.271 540.184C808.385 539.702 809.574 534.584 809.64 534.453C809.717 534.3 813.245 530.046 813.585 529.63" stroke="white" stroke-width="1.5591" stroke-miterlimit="3.8637" stroke-linejoin="round"/>
<path d="M586.507 574.848L590.001 576.772C593.924 582.094 594.212 586.061 596.756 590.927C598.95 595.124 604.847 599.049 608.847 597.549C612.847 596.049 614.097 597.299 615.097 598.049C616.097 598.799 618.097 602.049 618.847 604.049C619.597 606.049 620.847 611.299 620.847 612.799C620.847 614.299 621.347 616.549 622.847 616.549C624.347 616.549 629.347 618.049 629.347 618.049L633.097 621.049" stroke="white" stroke-width="1.5591" stroke-miterlimit="3.8637" stroke-linejoin="round"/>
<path d="M633.097 621.049L636.097 621.799C636.097 621.799 638.347 623.049 639.847 622.549C641.347 622.049 644.097 622.799 646.097 623.549C648.097 624.299 651.097 624.049 651.847 623.049C652.597 622.049 658.347 616.799 659.097 615.299C659.847 613.799 662.097 609.299 662.097 609.299C662.097 609.299 665.097 606.299 667.097 606.299C669.097 606.299 668.347 604.049 667.847 601.799C667.347 599.549 668.347 598.299 669.597 595.299C670.847 592.299 671.847 593.049 675.347 594.049C678.847 595.049 678.597 596.049 679.097 599.049C679.597 602.049 681.347 601.799 682.347 599.799C683.347 597.799 685.347 595.799 685.347 595.799C685.347 595.799 687.847 595.799 689.347 596.049C690.847 596.299 695.847 592.299 695.847 592.299C695.847 592.299 700.029 592.496 702.868 591.213C703.763 590.067 707.372 584.676 707.804 584.296C707.932 584.184 711.885 582.114 712.293 581.895L717.702 582.203C722.704 579.102 727.393 573.972 733.127 572.441C735.087 571.917 737.673 572.208 739.552 571.546C742.017 570.678 744.3 568.568 746.757 567.643L750.458 567.043C751.18 566.926 751.577 566.743 752.308 566.743C753.687 566.744 755.391 567.493 756.796 567.653C758.38 567.832 760.132 567.759 761.734 567.81L767.59 563.302C774.21 563.068 780.376 564.49 786.773 566.035" stroke="white" stroke-width="1.5591" stroke-miterlimit="3.8637" stroke-linejoin="round"/>
<path d="M786.774 566.036C787.232 568.016 785.928 571.282 784.528 572.654C780.383 574.467 778.433 574.689 775.11 577.737L773.597 581.798C773.493 583.691 773.109 587.858 774.597 589.048C777.36 591.257 778.489 591.199 781.387 594.171L782.284 598.54C780.513 603.748 778.257 605.504 775.717 609.666C774.718 611.301 774.125 613.264 773.167 614.93C771.518 617.797 769.391 620.875 767.167 623.35C769.547 630.121 770.068 637.411 769.835 644.526L769.74 647.436C769.223 649.424 767.887 651.491 767.19 653.452C764.781 660.22 762.603 667.1 760.315 673.911C759.939 675.032 759.794 676.501 759.559 677.675C757.733 679.321 755.443 681.905 754.622 684.29L755.684 686.999C757.818 687.759 760.933 691.124 761.685 693.177C762.484 695.353 763.16 704.921 762.747 707.027C762.282 709.402 760.537 712.197 759.748 714.547C758.56 718.086 757.484 722.367 757.504 726.133C753.281 727.305 746.991 729.428 743.425 732.135C743.38 736.297 742.276 741.028 740.898 744.926L738.347 747.03C736.024 747.26 726.587 748.544 724.695 750.02L721.512 753.329C719.865 755.042 718.12 757.634 717.371 759.948L718.267 762.507C717.819 765.062 714.276 768.644 712.291 770.025" stroke="white" stroke-width="1.5591" stroke-miterlimit="3.8637" stroke-linejoin="round"/>
<path d="M500.97 799.895C506.132 802.516 511.56 805.032 517.032 806.948C519.846 806.3 520.978 807.266 522.596 806.3C524.408 805.216 525.43 801.411 526.846 799.55C529.67 795.837 531.328 793.89 534.671 791.46C536.902 789.837 538.828 787.606 541.096 786.05C543.136 784.65 547.069 781.734 549.346 780.8C553.233 779.206 555.283 778.636 558.985 775.999C562.581 775.8 566.279 777.948 568.126 777.968L574.614 776.972L577.858 776.474L583.411 778.74C584.095 781.879 585.622 782.594 587.001 784.914C588.277 787.062 589.125 789.976 590.166 792.293L595.104 795.311C595.82 798.991 593.699 800.602 592.861 803.584C592.808 803.772 591.956 809.818 591.962 809.906C591.97 810.019 593.479 814.187 593.616 814.572C591.339 819.158 595.334 824.468 599.024 826.92L603.065 826.473C604.789 824.973 606.765 823.541 608.757 822.418C610.516 822.936 613.126 824.059 614.9 824.23C616.7 824.406 619.495 823.808 621.347 823.638" stroke="white" stroke-width="1.5591" stroke-miterlimit="3.8637" stroke-linejoin="round"/>
<path d="M517.718 905.68L512.436 907.313" stroke="white" stroke-width="1.5591" stroke-miterlimit="3.8637" stroke-linejoin="round"/>
<path d="M570.914 1016.14C570.914 1015.52 570.878 1008.67 570.914 1008.51C571.578 1005.54 576.959 995.326 578.097 992.299C576.889 988.758 573.313 979.119 574.347 975.299L576.63 965.108C577.45 962.077 578.252 960.438 578.733 957.337C578.834 956.683 577.339 950.107 577.339 948.892C577.339 943.91 580.434 936.122 581.875 931.351C582.106 930.587 584.187 926.089 584.347 925.3C587.326 925.548 595.393 928.017 597.847 927.05C597.879 927.036 603.474 926.177 603.597 926.05C605.138 924.452 607.762 921.083 609.347 919.55C611.756 917.218 613.591 912.068 617.094 912.63C620.488 913.173 622.22 917.265 625.53 918.224C630.353 918.724 633.405 916.056 637.742 915.369C639.727 916.035 642.725 916.664 644.522 917.642C646.547 918.746 648.218 921.048 650.238 922.179L653.45 923.087L655.056 923.542C657.594 923.181 661.132 921.327 662.897 919.476C665.462 918.81 670.387 920.193 672.702 921.146" stroke="white" stroke-width="1.5591" stroke-miterlimit="3.8637" stroke-linejoin="round"/>
<path d="M576.097 750.299C576.097 750.299 575.097 751.799 573.097 751.799C571.097 751.799 570.097 753.049 568.097 753.299C566.097 753.549 564.347 755.049 565.597 756.549C566.847 758.049 566.847 758.049 566.847 760.049C566.847 762.049 568.097 763.299 569.597 763.549C571.097 763.799 574.347 764.799 575.097 766.799C575.847 768.799 578.097 770.799 580.347 767.799C582.597 764.799 583.097 763.549 584.347 764.049C585.597 764.549 590.097 766.799 591.097 763.049C592.097 759.299 592.347 759.049 590.347 757.049C588.347 755.049 587.097 752.799 586.097 751.549C585.097 750.299 584.097 753.049 583.597 754.299C583.097 755.549 580.847 755.049 580.847 753.049C580.847 751.049 580.347 751.049 579.097 749.549C577.847 748.049 576.097 750.299 576.097 750.299Z" stroke="white" stroke-width="1.5591" stroke-miterlimit="3.8637" stroke-linejoin="round"/>
<path d="M510.006 749.213C510.006 749.213 513.597 750.299 514.847 751.299C516.097 752.299 518.597 748.799 521.097 750.549C523.597 752.299 530.097 753.299 530.097 749.049C530.097 744.799 529.347 738.549 532.347 742.549C535.347 746.549 536.347 745.799 537.347 743.549C538.347 741.299 540.597 738.549 541.347 737.549C542.097 736.549 544.847 735.049 546.347 735.299C547.847 735.549 550.597 735.049 550.597 735.049C550.597 735.049 551.347 730.049 552.597 730.299C553.847 730.549 556.097 730.799 557.847 728.549C559.597 726.299 562.347 723.549 562.347 723.549C562.347 723.549 564.847 723.049 565.847 721.549C566.847 720.049 571.597 719.549 572.597 721.299C573.597 723.049 575.347 723.299 576.597 722.049C577.847 720.799 582.097 718.049 585.097 718.799C587.159 719.315 588.277 720.301 589.585 720.383L590.757 725.112L594.131 727.889C594.131 727.889 595.347 730.049 596.722 730.299C598.097 730.549 599.972 730.799 600.722 731.674C601.472 732.549 602.847 732.924 603.472 732.924C604.097 732.924 612.097 733.674 613.097 734.049C614.097 734.424 616.347 733.799 616.347 733.799L618.722 732.049L623.11 731.861L622.714 734.838L623.849 737.299C623.849 737.299 625.724 735.799 626.849 735.549C627.974 735.299 628.599 735.299 629.224 735.924C629.849 736.549 632.224 736.924 633.849 736.299C635.474 735.674 637.349 735.674 637.974 736.299C638.599 736.924 641.224 737.549 641.849 737.299C642.474 737.049 643.099 735.674 642.849 733.674C642.599 731.674 641.599 730.424 642.224 729.299C642.849 728.174 643.849 726.924 643.849 726.924L646.724 723.049" stroke="white" stroke-width="1.5591" stroke-miterlimit="3.8637" stroke-linejoin="round"/>
<path d="M818.662 448.727C818.662 448.727 818.347 452.549 817.097 453.549C815.847 454.549 817.347 457.299 818.347 458.799C819.347 460.299 818.847 461.799 817.597 462.799C816.347 463.799 814.347 464.799 814.347 466.299C814.347 467.799 815.097 467.549 812.847 468.799C810.597 470.049 807.847 470.549 806.847 469.049C805.847 467.549 805.347 466.299 804.097 467.549C802.847 468.799 801.641 469.019 802.119 471.784" stroke="white" stroke-width="1.5591" stroke-miterlimit="3.8637" stroke-linejoin="round"/>
<path d="M693.236 402.444C693.236 402.444 696.597 406.298 697.097 407.298C697.597 408.298 698.597 408.798 698.597 408.798L705.097 409.048C705.097 409.048 709.347 412.548 710.597 413.798C711.847 415.048 713.097 417.048 713.847 420.048C714.597 423.048 715.097 425.048 714.847 427.298C714.597 429.548 713.597 429.548 712.347 428.298C711.097 427.048 710.097 426.298 709.097 424.798C708.097 423.298 706.597 423.048 705.597 424.048C704.597 425.048 700.597 428.798 700.597 428.798L698.347 431.548C698.347 431.548 696.097 431.548 695.097 431.798C694.097 432.048 694.118 436.12 694.483 437.709" stroke="white" stroke-width="1.5591" stroke-miterlimit="3.8637" stroke-linejoin="round"/>
<path d="M820.097 326.299C817.097 327.299 817.097 328.049 816.347 329.799C815.597 331.549 812.597 338.799 816.597 339.299C820.597 339.799 821.347 339.299 822.597 340.299C823.847 341.299 824.097 341.799 824.347 343.799C824.597 345.799 825.347 350.799 825.097 351.799C824.847 352.799 827.347 353.299 823.347 353.549C819.347 353.799 819.847 355.049 819.847 357.049C819.847 359.049 819.847 361.049 821.347 362.549C822.847 364.049 824.097 363.799 824.597 361.299C825.097 358.799 826.847 358.549 827.597 360.049C828.347 361.549 831.347 363.549 831.347 365.049C831.347 366.549 832.347 367.549 833.347 368.049C834.347 368.549 837.097 369.799 837.347 372.049C837.597 374.299 838.097 374.299 841.347 374.549C844.597 374.799 846.097 374.549 848.097 374.799C850.097 375.049 851.597 373.549 849.597 372.049C847.597 370.549 846.847 369.049 846.597 366.799C846.347 364.549 846.097 360.299 849.597 360.299C853.097 360.299 854.847 360.049 855.847 359.049C856.847 358.049 857.097 357.049 855.847 356.049C854.597 355.049 848.847 354.299 850.597 352.299C852.347 350.299 852.097 348.549 852.097 347.049C852.097 345.549 851.597 345.049 852.847 343.799C854.097 342.549 853.597 341.549 852.347 340.299C851.097 339.049 849.597 337.549 848.347 337.549C847.097 337.549 845.347 336.549 846.847 335.049C848.347 333.549 848.847 330.549 847.097 329.299C845.347 328.049 844.597 327.549 844.597 325.049C844.597 322.549 843.097 319.549 843.097 318.049C843.097 316.549 843.847 315.299 841.097 314.549C838.347 313.799 837.847 309.299 835.847 312.049C833.847 314.799 834.097 315.799 831.597 316.299C829.097 316.799 829.347 318.049 827.847 319.549C826.347 321.049 824.097 323.299 824.097 323.299C824.097 323.299 823.097 325.299 820.097 326.299Z" stroke="white" stroke-width="1.5591" stroke-miterlimit="3.8637" stroke-linejoin="round"/>
<path d="M633.097 621.049C632.347 622.799 627.847 622.799 624.847 623.299C621.847 623.799 623.847 627.049 625.847 628.799C627.847 630.549 625.347 632.049 624.847 634.049C624.347 636.049 624.097 636.549 622.597 637.799C621.097 639.049 622.347 641.549 622.847 643.299C623.347 645.049 624.347 645.549 622.847 648.799C621.347 652.049 618.414 657.526 618.89 660.289C619.265 662.469 619.52 665.408 620.946 667.264C624.318 671.653 630.587 672.83 634.955 676.993C630.731 677.571 624.558 681.266 621.183 683.632L613.057 680.53L604.79 681.901L599.852 677.715L585.491 674.106L575.57 673.239L566.995 668.62L560.547 667.102L550.13 669.774L538.318 670.639L535.104 670.494L530.215 668.277" stroke="white" stroke-width="1.5591" stroke-miterlimit="3.8637" stroke-linejoin="round"/>
<path d="M621.182 683.631C621.182 683.631 624.347 687.049 625.347 688.799C626.347 690.549 627.597 693.049 624.097 694.549C620.597 696.049 623.597 702.299 623.597 702.299L624.097 709.049C624.097 709.049 623.347 713.049 622.097 714.799C620.847 716.549 621.597 723.549 621.597 723.549C621.597 723.549 624.347 722.049 625.597 721.049C626.847 720.049 627.347 722.299 628.347 724.549C629.347 726.799 636.097 723.299 637.347 722.549C638.597 721.799 641.097 719.549 641.097 719.549C641.097 719.549 647.623 723.578 647.804 723.588C650.75 723.725 658.602 726.307 661.151 727.969C661.267 728.045 663.463 730.563 663.703 730.83C663.413 732.726 663.254 734.844 662.806 736.699C662.396 738.396 661.257 740.271 661.011 741.965C660.355 746.471 663.183 751.844 663.113 756.569C663.531 756.866 667.598 759.811 667.765 759.883L674.805 761.699C677.273 761.853 680.107 760.756 682.601 760.804C685.166 760.857 688.276 761.64 690.845 762.019C695.053 762.955 700.288 764.011 704.641 763.54C707.423 764.993 710.373 767.554 712.295 770.024C713.105 772.071 713.416 775.569 712.744 777.7C710.74 781.21 707.381 781.499 704.806 784.161C704.619 786.448 704.781 789.165 705.395 791.386C709.257 794.365 714.136 795.579 717.704 798.927C718.497 801.011 717.892 804.722 716.807 806.603C717.833 808.669 719.069 810.802 719.949 812.927C720.878 815.169 721.309 817.833 722.359 820.001L724.462 822.261C729.477 825.202 734.441 828.337 739.603 831.011C742.081 830.529 744.583 830.103 747.091 829.816L748.342 830.773L750.846 832.683C753.199 835.576 754.554 839.663 756.705 842.773C756.833 842.959 759.111 845.679 759.233 845.787C760.261 846.697 761.727 847.373 762.845 848.199C765.965 850.504 768.983 853.123 771.845 855.738C774.09 855.326 780.589 854.033 782.474 852.742L783.074 851.187C784.972 846.251 783.752 847.751 783.964 843.259C784.074 840.933 785.264 835.478 786.067 833.329L792.65 815.677C793.933 812.236 794.442 810.206 795.942 806.851L799.533 801.74C800.842 799.877 803.106 796.888 803.879 794.672C805.16 790.992 803.781 786.152 802.061 782.781L802.409 781.326C803.278 777.681 803.643 777.668 806.1 775.109C808.716 772.384 813.03 767.509 817.344 768.048C819.109 769.202 821.493 773.911 822.295 775.743" stroke="white" stroke-width="1.5591" stroke-miterlimit="3.8637" stroke-linejoin="round"/>
<path d="M690.843 762.018C689.379 763.594 686.159 764.932 684.039 765.051L680.828 769.237L678.796 769.983L674.734 771.475C674.683 771.506 671.311 775.211 671.26 775.299C669.961 777.578 669.029 780.779 668.026 783.24C664.491 784.894 661.946 787.763 659.482 790.65C658.825 791.42 658.615 792.027 657.796 792.623C655.593 794.227 651.802 794.652 649.67 796.305L646 800.897L644.165 803.192C642.192 803.475 639.825 803.159 637.977 803.641C635.166 804.373 633.891 807.948 631.222 808.748C628.866 808.238 625.725 806.209 624.182 804.381L621.065 806.481C621.52 812.135 621.629 817.971 621.347 823.637C621.467 826.176 620.523 833.276 619.104 835.373C617.774 837.338 615.083 838.893 613.577 840.785L610.473 845.697C606.101 852.617 603.14 860.377 597.702 866.652C596.461 868.084 594.235 869.449 592.765 870.709C590.586 872.578 588.507 874.564 586.318 876.42C582.924 879.295 578.11 882.621 575.38 886.037C574.758 886.816 574.593 887.383 574.089 888.244L571.507 892.656C570.682 894.515 570.381 896.879 569.71 898.826C569.067 900.693 568.206 902.556 567.466 904.39C564.541 906.298 563.072 905.146 560.712 905.738C557.741 906.482 555.132 909.304 552.326 910.24C551.732 910.437 551.349 910.332 550.726 910.388C545.185 910.906 544.82 909.654 539.899 909.021L536.293 909.015C530.867 909.007 528.149 909.81 522.805 907.695L517.719 905.681" stroke="white" stroke-width="1.5591" stroke-miterlimit="3.8637" stroke-linejoin="round"/>
<path d="M716.804 806.602C714.553 807.188 712.185 807.973 709.908 808.397C707.825 808.786 705.167 808.551 703.175 809.141C703.077 809.17 697.91 811.889 697.766 811.995C695.917 813.333 693.346 816.366 691.435 818.057C690.929 818.506 690.509 818.645 690.136 819.209C690.088 819.283 687.081 826.17 686.995 826.428C686.344 828.369 686.347 830.686 685.649 832.6C684.068 836.932 679.521 839.266 678.774 844.028C678.17 847.876 680.07 854.952 679.814 856.973C679.797 857.104 676.911 865.287 676.696 865.848C676.541 866.254 675.36 868.496 675.326 868.707C674.971 870.92 675.541 873.881 675.49 876.232C673.67 878.054 668.015 885.164 667.246 887.207C667.091 887.621 666.238 894.228 666.066 895.182C665.657 897.442 665.071 899.709 664.577 901.953C665.505 905.717 667.66 908.881 669.829 911.994C670.415 912.836 670.922 913.213 671.333 914.154L672.246 918.814L672.703 921.144C673.113 923.66 673.54 926.228 674.191 928.695C676.044 929.781 678.756 930.984 680.379 932.326C681.813 933.51 683.478 937.041 683.095 938.971L680.521 942.442C680.352 944.838 680.682 947.895 681.583 950.143C680.862 953.012 676.6 955.311 674.19 956.475C673.084 957.01 671.67 957.131 670.575 957.678C670.121 957.907 668.137 959.551 667.859 959.637C665.308 960.43 660.111 960.651 656.709 961.588C653.89 963.629 654.265 967.639 652.788 970.34C651.256 973.141 648.589 975.592 646.907 978.336C646.183 979.516 645.622 981.541 645.112 982.861C644.322 984.906 642.995 987.545 642.537 989.652C641.814 992.968 641.964 998.472 643.151 1001.73C644.075 1004.27 646.119 1007.02 646.763 1009.59C646.918 1010.2 646.694 1018.79 646.597 1020.31C648.557 1023.26 650.684 1026.17 652.928 1028.92L653.237 1031.18C651.342 1033.71 648.787 1034.13 647.213 1035.7L645.496 1038.42L644.638 1039.78C644.442 1041.63 644.904 1044.49 645.844 1046.12C647.782 1048.06 650.55 1049.89 653.073 1050.96C657.24 1056.19 655.662 1065.34 657.444 1071.8C659.834 1075.33 665.015 1076.56 668.901 1077.7C669.618 1078.8 672.463 1081.97 673.86 1082.23C675.095 1082.47 675.819 1082.42 677.071 1082.54L683.494 1083.15" stroke="white" stroke-width="1.5591" stroke-miterlimit="3.8637" stroke-linejoin="round"/>
<path d="M325.492 379.465C322.365 375.724 320.482 370.905 320.482 365.647C320.482 353.741 330.132 344.09 342.039 344.09C347.983 344.09 353.365 346.496 357.328 350.387" stroke="white" stroke-width="3.4016" stroke-miterlimit="3.8637" stroke-dasharray="14.17 4.25"/>
</g>
<defs>
<clipPath id="clip0_53_2124">
<rect width="1015.73" height="1221.25" fill="white"/>
</clipPath>
</defs>
</svg>
